{"title":"Tucker.And.Dale.Vs.Evil.2010.DvDRip.H264.Feel-Free","uid":6357422,"size":1098482944,"categoryP":"video","categoryS":"movies","magnet":"?xt=urn:btih:535c188e91d2771d2577ffc6dd3a0f2b269c3b37&amp;dn=Tucker.And.Dale.Vs.Evil.2010.DvDRip.H264.Feel-Free&amp;tr=udp%3A%2F%2Ftracker.openbittorrent.com%3A80&amp;tr=udp%3A%2F%2Fopen.demonii.com%3A1337&amp;tr=udp%3A%2F%2Ftracker.coppersurfer.tk%3A6969&amp;tr=udp%3A%2F%2Fexodus.desync.com%3A6969","seeders":0,"leechers":1,"uploader":"hiest","files":-1,"time":1304191627,"description":"######## ######## ######## ##          ######## ########  ######## ######## \n##       ##       ##       ##          ##       ##     ## ##       ##       \n##       ##       ##       ##          ##       ##     ## ##       ##       \n######   ######   ######   ##          ######   ########  ######   ######   \n##       ##       ##       ##          ##       ##   ##   ##       ##       \n##       ##       ##       ##          ##       ##    ##  ##       ##       \n##       ######## ######## ########    ##       ##     ## ######## ######## \n\nGenre:Comedy | Horror \n Language:English\n IMDb: &lt;a href=&quot;\nhttp://www.imdb.com/title/tt1465522/&quot; rel=&quot;nofollow&quot; target=&quot;_NEW&quot;&gt;\nhttp://www.imdb.com/title/tt1465522/&lt;/a&gt;\n Source:DVD\n Subtitles:Romana\n\n Format : MPEG-4\n Format profile : Base Media\n Codec ID : isom\n File size : 1.02 GiB\n Duration : 1h 24mn\n Overall bit rate : 1 722 Kbps\n\n Video\n Codec ID : avc1\n Codec ID/Info : Advanced Video Coding\n Duration : 1h 24mn\n Bit rate mode : Variable\n Bit rate : 1 554 Kbps\n Width : 720 pixels\n Height : 304 pixels\n Display aspect ratio : 2.35:1\n Frame rate mode : Constant\n Frame rate : 29.970 fps\n Original frame rate : 29.000 fps\n Color space : YUV\n Chroma subsampling : 4:2:0\n Bit depth : 8 bits\n Scan type : Progressive\n Bits/(Pixel*Frame) : 0.237\n Stream size : 944 MiB (90%)\n\n Audio\n ID : 1\n Format : AAC\n Format/Info : Advanced Audio Codec\n Format version : Version 4\n Format profile : LC\n Codec ID : 40\n Duration : 1h 24mn\n Bit rate mode : Constant\n Bit rate : 160 Kbps\n Channel(s) : 2 channels\n Channel positions : Front: L R\n Sampling rate : 48.0 KHz\n Stream size : 97.2 MiB (9%)\n Language : English\n\n\n\n Plot:\n Tucker &amp; Dale are on vacation at their dilapidated mountain cabin when they are attacked by a group of preppy college kids. \n\n \nGreets:\n\n INK,CRYS,IMAGINE,LKRG,FXG,3Li,FLAWL3SS,TA,iLLUSiON,ViSiON,DTRG SAFCuk009,LU,TheFalcon007,MYSTiC,PrisM,Noir,WBZ,LAP,Rx,Kingdom,SAFCuk009+Fabreezy,HDLiTE,TWiZTED,ExtraTorrentRG.ELEKTRI4KA,MAGNAT,CM8\n And to all the other p2p grps past and present\n\n\n\n\n\n----------------------------------                    &lt;a href=&quot;\nhttp://thepiratebay.se/user/hiest&quot; rel=&quot;nofollow&quot; target=&quot;_NEW&quot;&gt;\nhttp://thepiratebay.se/user/hiest&lt;/a&gt;\n----------------------------------\n\n\n\n\n\nScreenshots:\n &lt;a href=&quot;\nhttp://www.pix2links.com/images/58380774865269299517.png&quot; rel=&quot;nofollow&quot; target=&quot;_NEW&quot;&gt;\nhttp://www.pix2links.com/images/58380774865269299517.png&lt;/a&gt;\n &lt;a href=&quot;\nhttp://www.pix2links.com/images/47194447718071541839.png&quot; rel=&quot;nofollow&quot; target=&quot;_NEW&quot;&gt;\nhttp://www.pix2links.com/images/47194447718071541839.png&lt;/a&gt;\n &lt;a href=&quot;\nhttp://www.pix2links.com/images/56009724808455968259.png&quot; rel=&quot;nofollow&quot; target=&quot;_NEW&quot;&gt;\nhttp://www.pix2links.com/images/56009724808455968259.png&lt;/a&gt;\n &lt;a href=&quot;\nhttp://www.pix2links.com/images/03766774888415915100.png&quot; rel=&quot;nofollow&quot; target=&quot;_NEW&quot;&gt;\nhttp://www.pix2links.com/images/03766774888415915100.png&lt;/a&gt;\n &lt;a href=&quot;\nhttp://www.pix2links.com/images/63251760716800093824.png&quot; rel=&quot;nofollow&quot; target=&quot;_NEW&quot;&gt;\nhttp://www.pix2links.com/images/63251760716800093824.png&lt;/a&gt;\n\n\n######## ######## ######## ##          ######## ########  ######## ######## \n##       ##       ##       ##          ##       ##     ## ##       ##       \n##       ##       ##       ##          ##       ##     ## ##       ##       \n######   ######   ######   ##          ######   ########  ######   ######   \n##       ##       ##       ##          ##       ##   ##   ##       ##       \n##       ##       ##       ##          ##       ##    ##  ##       ##       \n##       ######## ######## ########    ##       ##     ## ######## ######## ","torrent":{"xt":"urn:btih:535c188e91d2771d2577ffc6dd3a0f2b269c3b37","amp;dn":"Tucker.And.Dale.Vs.Evil.2010.DvDRip.H264.Feel-Free","amp;tr":["udp%3A%2F%2Ftracker.openbittorrent.com%3A80","udp%3A%2F%2Fopen.demonii.com%3A1337","udp%3A%2F%2Ftracker.coppersurfer.tk%3A6969","udp%3A%2F%2Fexodus.desync.com%3A6969"],"infoHash":"535c188e91d2771d2577ffc6dd3a0f2b269c3b37","infoHashBuffer":{"type":"Buffer","data":[83,92,24,142,145,210,119,29,37,119,255,198,221,58,15,43,38,156,59,55]},"announce":[],"urlList":[]}}